<svg id="visual" viewBox="0 0 900 600" width="900" height="600" xmlns="http://www.w3.org/2000/svg" xmlns:xlink="http://www.w3.org/1999/xlink" version="1.1"><rect width="900" height="600" fill="#1d1d1d"></rect><g><g transform="translate(491 167)"><path d="M124.7 -104.2C146.2 -72.4 137.7 -21.5 127.7 31.9C117.7 85.2 106.2 140.9 73.7 158.7C41.2 176.6 -12.2 156.5 -49 128.5C-85.7 100.5 -105.6 64.6 -122 20C-138.4 -24.5 -151.3 -77.7 -130.3 -109.3C-109.4 -140.8 -54.7 -150.8 -1.6 -149.6C51.6 -148.3 103.2 -135.9 124.7 -104.2Z" fill="none" stroke="#212121" stroke-width="20"></path></g><g transform="translate(75 597)"><path d="M80.6 -69.2C99.9 -40.1 107.8 -6.8 104.7 30.6C101.5 68.1 87.2 109.7 55.8 130.5C24.4 151.3 -24.2 151.2 -56.6 130.6C-89 110 -105.3 68.8 -106.6 32.9C-107.9 -3 -94.3 -33.7 -74.1 -63C-53.8 -92.4 -26.9 -120.5 1.9 -121.9C30.6 -123.4 61.3 -98.4 80.6 -69.2Z" fill="none" stroke="#212121" stroke-width="20"></path></g></g></svg>